<?xml version="1.0" standalone="no"?>
<!DOCTYPE svg PUBLIC "-//W3C//DTD SVG 20010904//EN"
 "http://www.w3.org/TR/2001/REC-SVG-20010904/DTD/svg10.dtd">
<svg version="1.0" xmlns="http://www.w3.org/2000/svg"
 width="650.000000pt" height="650.000000pt" viewBox="0 0 650.000000 650.000000"
 preserveAspectRatio="xMidYMid meet">
<metadata>
Created by potrace 1.11, written by Peter Selinger 2001-2013
</metadata>
<g transform="translate(0.000000,650.000000) scale(0.100000,-0.100000)"
fill="#000000" stroke="none">
<path d="M3315 6273 c-11 -3 -24 -9 -30 -13 -5 -4 -68 -38 -140 -76 -71 -37
-148 -78 -170 -90 -22 -12 -85 -45 -140 -74 -187 -98 -255 -143 -297 -195 -44
-56 -73 -113 -86 -173 -6 -23 -9 -813 -7 -1883 l2 -1844 22 -64 c51 -148 101
-190 390 -334 l232 -115 -33 -20 c-18 -11 -84 -46 -147 -78 -111 -57 -115 -58
-206 -61 -64 -2 -107 2 -137 13 -23 8 -167 77 -318 152 l-275 137 3 780 c2
429 4 964 5 1189 2 444 -2 489 -50 577 -30 56 -108 138 -151 160 -55 27 -55
30 5 62 159 83 232 166 268 302 11 42 16 153 20 448 5 372 5 394 -13 427 -25
45 -72 72 -123 72 -38 -1 -88 -25 -434 -212 -27 -15 -86 -46 -130 -70 -44 -24
-102 -55 -130 -70 -27 -15 -174 -94 -325 -175 -388 -208 -383 -205 -409 -229
-13 -11 -28 -32 -33 -46 -15 -36 -12 -846 2 -902 29 -106 121 -225 212 -272
40 -21 65 -36 100 -60 l27 -18 -4 -676 c-3 -373 -5 -897 -6 -1167 -2 -535 -3
-520 58 -624 58 -99 89 -119 522 -332 223 -110 413 -204 421 -209 8 -5 35 -19
60 -31 25 -12 178 -87 340 -167 332 -163 344 -168 426 -176 104 -12 170 9 369
117 44 24 134 72 200 107 219 115 355 189 665 360 96 53 182 100 190 103 8 4
47 26 85 47 39 22 138 74 220 116 83 42 155 79 160 84 6 4 69 38 140 75 124
65 534 282 660 350 33 18 105 56 160 85 359 190 397 211 437 248 47 44 83 113
97 182 6 32 13 298 16 630 4 316 8 632 9 701 3 170 -17 248 -86 329 -15 18
-94 80 -101 80 -4 0 -229 108 -622 300 -869 424 -837 411 -944 405 -73 -4 -87
-10 -323 -138 -254 -137 -424 -227 -431 -227 -3 0 -5 462 -6 1027 -1 1002 -2
1028 -21 1068 -32 66 -120 105 -195 88z m1059 -2934 c27 -7 149 -60 271 -119
233 -113 270 -140 291 -213 5 -18 9 -142 9 -277 -1 -275 -5 -295 -76 -351 -19
-15 -179 -106 -357 -203 l-323 -176 -172 84 c-95 45 -202 97 -238 115 -76 37
-155 110 -193 182 -43 77 -52 151 -50 379 2 232 1 220 12 220 5 0 74 36 153
81 79 44 167 93 194 108 28 16 66 37 85 48 232 132 285 148 394 122z"/>
</g>
</svg>
